<svg id="visual" viewBox="0 0 900 900" width="900" height="900" xmlns="http://www.w3.org/2000/svg" xmlns:xlink="http://www.w3.org/1999/xlink" version="1.1"><g stroke-width="1" stroke-linejoin="bevel"><path d="M438 461L469 485L497 424Z" fill="#5a1f24" stroke="#5a1f24"></path><path d="M469 485L560 494L497 424Z" fill="#310e10" stroke="#310e10"></path><path d="M560 494L574 436L497 424Z" fill="#9d3c41" stroke="#9d3c41"></path><path d="M497 424L364 420L438 461Z" fill="#310e10" stroke="#310e10"></path><path d="M373 637L474 627L469 485Z" fill="#9d3c41" stroke="#9d3c41"></path><path d="M578 272L465 309L497 424Z" fill="#44161b" stroke="#44161b"></path><path d="M497 424L465 309L364 420Z" fill="#6f282d" stroke="#6f282d"></path><path d="M465 309L403 302L364 420Z" fill="#ff6767" stroke="#ff6767"></path><path d="M403 302L310 413L364 420Z" fill="#44161b" stroke="#44161b"></path><path d="M373 637L469 485L438 461Z" fill="#6f282d" stroke="#6f282d"></path><path d="M272 504L438 461L364 420Z" fill="#210000" stroke="#210000"></path><path d="M469 485L474 627L560 494Z" fill="#cd5154" stroke="#cd5154"></path><path d="M474 627L615 584L560 494Z" fill="#210000" stroke="#210000"></path><path d="M721 485L670 393L574 436Z" fill="#9d3c41" stroke="#9d3c41"></path><path d="M721 485L574 436L560 494Z" fill="#5a1f24" stroke="#5a1f24"></path><path d="M574 436L578 272L497 424Z" fill="#5a1f24" stroke="#5a1f24"></path><path d="M670 393L578 272L574 436Z" fill="#9d3c41" stroke="#9d3c41"></path><path d="M465 309L497 218L403 302Z" fill="#e65c5d" stroke="#e65c5d"></path><path d="M310 413L272 504L364 420Z" fill="#310e10" stroke="#310e10"></path><path d="M272 504L373 637L438 461Z" fill="#5a1f24" stroke="#5a1f24"></path><path d="M373 637L487 666L474 627Z" fill="#b5464a" stroke="#b5464a"></path><path d="M474 627L487 666L615 584Z" fill="#e65c5d" stroke="#e65c5d"></path><path d="M690 712L662 578L615 584Z" fill="#e65c5d" stroke="#e65c5d"></path><path d="M615 584L662 578L560 494Z" fill="#cd5154" stroke="#cd5154"></path><path d="M578 272L497 218L465 309Z" fill="#e65c5d" stroke="#e65c5d"></path><path d="M272 504L303 624L373 637Z" fill="#ff6767" stroke="#ff6767"></path><path d="M373 637L365 716L487 666Z" fill="#b5464a" stroke="#b5464a"></path><path d="M662 578L721 485L560 494Z" fill="#310e10" stroke="#310e10"></path><path d="M722 272L583 210L578 272Z" fill="#5a1f24" stroke="#5a1f24"></path><path d="M578 272L583 210L497 218Z" fill="#e65c5d" stroke="#e65c5d"></path><path d="M722 272L578 272L670 393Z" fill="#210000" stroke="#210000"></path><path d="M288 192L271 273L403 302Z" fill="#cd5154" stroke="#cd5154"></path><path d="M403 302L271 273L310 413Z" fill="#b5464a" stroke="#b5464a"></path><path d="M165 428L203 514L272 504Z" fill="#44161b" stroke="#44161b"></path><path d="M497 218L403 190L403 302Z" fill="#5a1f24" stroke="#5a1f24"></path><path d="M480 76L403 190L497 218Z" fill="#e65c5d" stroke="#e65c5d"></path><path d="M165 428L272 504L310 413Z" fill="#5a1f24" stroke="#5a1f24"></path><path d="M272 504L173 579L303 624Z" fill="#ff6767" stroke="#ff6767"></path><path d="M299 686L373 637L303 624Z" fill="#6f282d" stroke="#6f282d"></path><path d="M299 686L365 716L373 637Z" fill="#cd5154" stroke="#cd5154"></path><path d="M238 724L299 686L303 624Z" fill="#6f282d" stroke="#6f282d"></path><path d="M487 666L582 722L615 584Z" fill="#ff6767" stroke="#ff6767"></path><path d="M774 607L794 503L721 485Z" fill="#863237" stroke="#863237"></path><path d="M500 773L582 722L487 666Z" fill="#cd5154" stroke="#cd5154"></path><path d="M776 389L722 272L670 393Z" fill="#310e10" stroke="#310e10"></path><path d="M162 295L165 428L310 413Z" fill="#ff6767" stroke="#ff6767"></path><path d="M721 485L776 389L670 393Z" fill="#863237" stroke="#863237"></path><path d="M403 190L288 192L403 302Z" fill="#b5464a" stroke="#b5464a"></path><path d="M271 273L162 295L310 413Z" fill="#ff6767" stroke="#ff6767"></path><path d="M288 192L235 235L271 273Z" fill="#b5464a" stroke="#b5464a"></path><path d="M415 780L500 773L487 666Z" fill="#5a1f24" stroke="#5a1f24"></path><path d="M79 561L173 579L203 514Z" fill="#b5464a" stroke="#b5464a"></path><path d="M203 514L173 579L272 504Z" fill="#cd5154" stroke="#cd5154"></path><path d="M774 607L721 485L662 578Z" fill="#6f282d" stroke="#6f282d"></path><path d="M721 485L794 503L776 389Z" fill="#b5464a" stroke="#b5464a"></path><path d="M365 716L415 780L487 666Z" fill="#b5464a" stroke="#b5464a"></path><path d="M273 805L415 780L365 716Z" fill="#5a1f24" stroke="#5a1f24"></path><path d="M726 176L572 127L583 210Z" fill="#cd5154" stroke="#cd5154"></path><path d="M583 210L572 127L497 218Z" fill="#ff6767" stroke="#ff6767"></path><path d="M403 190L309 90L288 192Z" fill="#9d3c41" stroke="#9d3c41"></path><path d="M690 712L774 607L662 578Z" fill="#863237" stroke="#863237"></path><path d="M690 712L615 584L582 722Z" fill="#5a1f24" stroke="#5a1f24"></path><path d="M723 777L690 712L615 839Z" fill="#6f282d" stroke="#6f282d"></path><path d="M235 235L162 295L271 273Z" fill="#cd5154" stroke="#cd5154"></path><path d="M173 579L238 724L303 624Z" fill="#6f282d" stroke="#6f282d"></path><path d="M299 686L273 805L365 716Z" fill="#44161b" stroke="#44161b"></path><path d="M900 315L792 265L776 389Z" fill="#5a1f24" stroke="#5a1f24"></path><path d="M776 389L792 265L722 272Z" fill="#863237" stroke="#863237"></path><path d="M722 272L726 176L583 210Z" fill="#6f282d" stroke="#6f282d"></path><path d="M786 205L726 176L722 272Z" fill="#cd5154" stroke="#cd5154"></path><path d="M479 0L480 76L593 0Z" fill="#5a1f24" stroke="#5a1f24"></path><path d="M572 127L480 76L497 218Z" fill="#cd5154" stroke="#cd5154"></path><path d="M288 192L135 176L235 235Z" fill="#44161b" stroke="#44161b"></path><path d="M235 235L135 176L162 295Z" fill="#44161b" stroke="#44161b"></path><path d="M480 76L374 78L403 190Z" fill="#6f282d" stroke="#6f282d"></path><path d="M162 295L85 375L165 428Z" fill="#5a1f24" stroke="#5a1f24"></path><path d="M63 481L79 561L203 514Z" fill="#6f282d" stroke="#6f282d"></path><path d="M374 78L309 90L403 190Z" fill="#6f282d" stroke="#6f282d"></path><path d="M162 295L65 291L85 375Z" fill="#cd5154" stroke="#cd5154"></path><path d="M792 265L786 205L722 272Z" fill="#b5464a" stroke="#b5464a"></path><path d="M163 796L273 805L238 724Z" fill="#b5464a" stroke="#b5464a"></path><path d="M238 724L273 805L299 686Z" fill="#6f282d" stroke="#6f282d"></path><path d="M526 900L615 839L500 773Z" fill="#44161b" stroke="#44161b"></path><path d="M63 481L203 514L165 428Z" fill="#cd5154" stroke="#cd5154"></path><path d="M137 789L163 796L238 724Z" fill="#cd5154" stroke="#cd5154"></path><path d="M85 375L63 481L165 428Z" fill="#cd5154" stroke="#cd5154"></path><path d="M615 839L690 712L582 722Z" fill="#210000" stroke="#210000"></path><path d="M690 712L837 671L774 607Z" fill="#44161b" stroke="#44161b"></path><path d="M615 839L582 722L500 773Z" fill="#44161b" stroke="#44161b"></path><path d="M433 900L500 773L415 780Z" fill="#863237" stroke="#863237"></path><path d="M900 581L900 505L794 503Z" fill="#ff6767" stroke="#ff6767"></path><path d="M794 503L900 375L776 389Z" fill="#cd5154" stroke="#cd5154"></path><path d="M792 265L900 161L786 205Z" fill="#863237" stroke="#863237"></path><path d="M723 777L837 671L690 712Z" fill="#863237" stroke="#863237"></path><path d="M836 114L726 102L726 176Z" fill="#44161b" stroke="#44161b"></path><path d="M726 176L726 102L572 127Z" fill="#b5464a" stroke="#b5464a"></path><path d="M900 581L794 503L774 607Z" fill="#310e10" stroke="#310e10"></path><path d="M207 67L135 176L288 192Z" fill="#863237" stroke="#863237"></path><path d="M900 505L900 375L794 503Z" fill="#b5464a" stroke="#b5464a"></path><path d="M786 205L836 114L726 176Z" fill="#cd5154" stroke="#cd5154"></path><path d="M135 176L65 291L162 295Z" fill="#b5464a" stroke="#b5464a"></path><path d="M0 427L0 467L63 481Z" fill="#6f282d" stroke="#6f282d"></path><path d="M837 671L900 581L774 607Z" fill="#863237" stroke="#863237"></path><path d="M900 375L900 315L776 389Z" fill="#44161b" stroke="#44161b"></path><path d="M593 0L480 76L572 127Z" fill="#210000" stroke="#210000"></path><path d="M480 76L479 0L374 78Z" fill="#6f282d" stroke="#6f282d"></path><path d="M374 78L308 0L309 90Z" fill="#44161b" stroke="#44161b"></path><path d="M309 90L207 67L288 192Z" fill="#e65c5d" stroke="#e65c5d"></path><path d="M320 900L433 900L415 780Z" fill="#5a1f24" stroke="#5a1f24"></path><path d="M433 900L526 900L500 773Z" fill="#210000" stroke="#210000"></path><path d="M794 900L811 783L723 777Z" fill="#863237" stroke="#863237"></path><path d="M479 0L366 0L374 78Z" fill="#cd5154" stroke="#cd5154"></path><path d="M137 789L238 724L77 730Z" fill="#b5464a" stroke="#b5464a"></path><path d="M273 805L320 900L415 780Z" fill="#e65c5d" stroke="#e65c5d"></path><path d="M232 0L207 67L309 90Z" fill="#9d3c41" stroke="#9d3c41"></path><path d="M726 102L593 0L572 127Z" fill="#b5464a" stroke="#b5464a"></path><path d="M63 481L0 467L79 561Z" fill="#44161b" stroke="#44161b"></path><path d="M77 730L238 724L173 579Z" fill="#863237" stroke="#863237"></path><path d="M0 427L63 481L85 375Z" fill="#863237" stroke="#863237"></path><path d="M0 272L0 427L85 375Z" fill="#5a1f24" stroke="#5a1f24"></path><path d="M229 900L320 900L273 805Z" fill="#9d3c41" stroke="#9d3c41"></path><path d="M689 900L723 777L615 839Z" fill="#cd5154" stroke="#cd5154"></path><path d="M723 777L811 783L837 671Z" fill="#e65c5d" stroke="#e65c5d"></path><path d="M837 671L900 688L900 581Z" fill="#6f282d" stroke="#6f282d"></path><path d="M77 730L173 579L79 561Z" fill="#6f282d" stroke="#6f282d"></path><path d="M163 796L229 900L273 805Z" fill="#44161b" stroke="#44161b"></path><path d="M366 0L308 0L374 78Z" fill="#310e10" stroke="#310e10"></path><path d="M526 900L636 900L615 839Z" fill="#6f282d" stroke="#6f282d"></path><path d="M0 614L77 730L79 561Z" fill="#44161b" stroke="#44161b"></path><path d="M811 783L900 688L837 671Z" fill="#b5464a" stroke="#b5464a"></path><path d="M99 0L102 124L207 67Z" fill="#5a1f24" stroke="#5a1f24"></path><path d="M207 67L102 124L135 176Z" fill="#310e10" stroke="#310e10"></path><path d="M0 225L0 272L65 291Z" fill="#210000" stroke="#210000"></path><path d="M65 291L0 272L85 375Z" fill="#210000" stroke="#210000"></path><path d="M900 161L836 114L786 205Z" fill="#9d3c41" stroke="#9d3c41"></path><path d="M726 102L715 0L593 0Z" fill="#6f282d" stroke="#6f282d"></path><path d="M0 467L0 614L79 561Z" fill="#cd5154" stroke="#cd5154"></path><path d="M636 900L689 900L615 839Z" fill="#5a1f24" stroke="#5a1f24"></path><path d="M0 225L65 291L135 176Z" fill="#44161b" stroke="#44161b"></path><path d="M308 0L232 0L309 90Z" fill="#44161b" stroke="#44161b"></path><path d="M802 0L715 0L726 102Z" fill="#b5464a" stroke="#b5464a"></path><path d="M124 900L163 796L137 789Z" fill="#863237" stroke="#863237"></path><path d="M124 900L229 900L163 796Z" fill="#5a1f24" stroke="#5a1f24"></path><path d="M900 315L900 161L792 265Z" fill="#310e10" stroke="#310e10"></path><path d="M836 114L802 0L726 102Z" fill="#44161b" stroke="#44161b"></path><path d="M102 124L0 225L135 176Z" fill="#6f282d" stroke="#6f282d"></path><path d="M0 614L0 726L77 730Z" fill="#6f282d" stroke="#6f282d"></path><path d="M0 829L124 900L137 789Z" fill="#44161b" stroke="#44161b"></path><path d="M900 161L900 109L836 114Z" fill="#310e10" stroke="#310e10"></path><path d="M689 900L794 900L723 777Z" fill="#b5464a" stroke="#b5464a"></path><path d="M811 783L900 834L900 688Z" fill="#6f282d" stroke="#6f282d"></path><path d="M900 0L802 0L836 114Z" fill="#310e10" stroke="#310e10"></path><path d="M0 829L137 789L77 730Z" fill="#ff6767" stroke="#ff6767"></path><path d="M794 900L900 834L811 783Z" fill="#310e10" stroke="#310e10"></path><path d="M232 0L99 0L207 67Z" fill="#9d3c41" stroke="#9d3c41"></path><path d="M102 124L0 79L0 225Z" fill="#5a1f24" stroke="#5a1f24"></path><path d="M99 0L0 79L102 124Z" fill="#863237" stroke="#863237"></path><path d="M0 726L0 829L77 730Z" fill="#310e10" stroke="#310e10"></path><path d="M900 109L900 0L836 114Z" fill="#ff6767" stroke="#ff6767"></path><path d="M794 900L900 900L900 834Z" fill="#44161b" stroke="#44161b"></path><path d="M99 0L0 0L0 79Z" fill="#9d3c41" stroke="#9d3c41"></path><path d="M0 829L0 900L124 900Z" fill="#b5464a" stroke="#b5464a"></path></g></svg>