<svg id="visual" viewBox="0 0 675 900" width="675" height="900" xmlns="http://www.w3.org/2000/svg" xmlns:xlink="http://www.w3.org/1999/xlink" version="1.1"><g stroke-width="1" stroke-linejoin="bevel"><path d="M362 459L399 383L322 425Z" fill="#672c76" stroke="#672c76"></path><path d="M362 459L438 418L399 383Z" fill="#e50173" stroke="#e50173"></path><path d="M440 337L401 333L399 383Z" fill="#ff0066" stroke="#ff0066"></path><path d="M399 383L319 328L322 425Z" fill="#672c76" stroke="#672c76"></path><path d="M319 328L276 401L322 425Z" fill="#492c6b" stroke="#492c6b"></path><path d="M263 502L398 514L362 459Z" fill="#17224a" stroke="#17224a"></path><path d="M401 333L319 328L399 383Z" fill="#17224a" stroke="#17224a"></path><path d="M263 502L362 459L322 425Z" fill="#e50173" stroke="#e50173"></path><path d="M362 459L398 514L438 418Z" fill="#2e285c" stroke="#2e285c"></path><path d="M438 418L440 337L399 383Z" fill="#a7217e" stroke="#a7217e"></path><path d="M319 328L247 373L276 401Z" fill="#672c76" stroke="#672c76"></path><path d="M398 514L463 505L438 418Z" fill="#492c6b" stroke="#492c6b"></path><path d="M438 418L481 346L440 337Z" fill="#c7147b" stroke="#c7147b"></path><path d="M550 381L481 346L438 418Z" fill="#ff0066" stroke="#ff0066"></path><path d="M194 460L263 502L276 401Z" fill="#a7217e" stroke="#a7217e"></path><path d="M276 401L263 502L322 425Z" fill="#a7217e" stroke="#a7217e"></path><path d="M550 381L490 329L481 346Z" fill="#2e285c" stroke="#2e285c"></path><path d="M481 346L490 329L440 337Z" fill="#17224a" stroke="#17224a"></path><path d="M411 197L316 210L401 333Z" fill="#e50173" stroke="#e50173"></path><path d="M401 333L316 210L319 328Z" fill="#ff0066" stroke="#ff0066"></path><path d="M303 585L383 576L398 514Z" fill="#e50173" stroke="#e50173"></path><path d="M398 514L417 586L463 505Z" fill="#2e285c" stroke="#2e285c"></path><path d="M188 571L260 552L263 502Z" fill="#001122" stroke="#001122"></path><path d="M263 502L303 585L398 514Z" fill="#e50173" stroke="#e50173"></path><path d="M183 424L194 460L276 401Z" fill="#17224a" stroke="#17224a"></path><path d="M363 674L417 586L383 576Z" fill="#87297d" stroke="#87297d"></path><path d="M383 576L417 586L398 514Z" fill="#492c6b" stroke="#492c6b"></path><path d="M260 552L303 585L263 502Z" fill="#ff0066" stroke="#ff0066"></path><path d="M247 373L183 424L276 401Z" fill="#2e285c" stroke="#2e285c"></path><path d="M485 563L548 451L463 505Z" fill="#672c76" stroke="#672c76"></path><path d="M463 505L548 451L438 418Z" fill="#001122" stroke="#001122"></path><path d="M548 451L550 381L438 418Z" fill="#ff0066" stroke="#ff0066"></path><path d="M417 586L485 563L463 505Z" fill="#2e285c" stroke="#2e285c"></path><path d="M319 328L188 329L247 373Z" fill="#87297d" stroke="#87297d"></path><path d="M247 373L188 329L183 424Z" fill="#17224a" stroke="#17224a"></path><path d="M443 210L401 333L440 337Z" fill="#87297d" stroke="#87297d"></path><path d="M319 328L316 210L188 329Z" fill="#ff0066" stroke="#ff0066"></path><path d="M494 218L443 210L490 329Z" fill="#2e285c" stroke="#2e285c"></path><path d="M490 329L443 210L440 337Z" fill="#c7147b" stroke="#c7147b"></path><path d="M443 210L411 197L401 333Z" fill="#a7217e" stroke="#a7217e"></path><path d="M608 485L588 428L548 451Z" fill="#e50173" stroke="#e50173"></path><path d="M548 451L588 428L550 381Z" fill="#17224a" stroke="#17224a"></path><path d="M550 381L619 250L490 329Z" fill="#ff0066" stroke="#ff0066"></path><path d="M588 428L588 382L550 381Z" fill="#e50173" stroke="#e50173"></path><path d="M139 214L156 332L188 329Z" fill="#17224a" stroke="#17224a"></path><path d="M188 329L135 400L183 424Z" fill="#c7147b" stroke="#c7147b"></path><path d="M156 332L135 400L188 329Z" fill="#492c6b" stroke="#492c6b"></path><path d="M183 424L113 479L194 460Z" fill="#e50173" stroke="#e50173"></path><path d="M194 460L188 571L263 502Z" fill="#001122" stroke="#001122"></path><path d="M619 250L494 218L490 329Z" fill="#672c76" stroke="#672c76"></path><path d="M443 210L413 120L411 197Z" fill="#ff0066" stroke="#ff0066"></path><path d="M116 519L188 571L194 460Z" fill="#492c6b" stroke="#492c6b"></path><path d="M260 552L215 675L303 585Z" fill="#001122" stroke="#001122"></path><path d="M417 586L502 621L485 563Z" fill="#001122" stroke="#001122"></path><path d="M485 563L608 485L548 451Z" fill="#87297d" stroke="#87297d"></path><path d="M419 680L502 621L417 586Z" fill="#492c6b" stroke="#492c6b"></path><path d="M363 674L383 576L303 585Z" fill="#672c76" stroke="#672c76"></path><path d="M594 616L608 485L485 563Z" fill="#672c76" stroke="#672c76"></path><path d="M588 428L675 410L588 382Z" fill="#001122" stroke="#001122"></path><path d="M355 711L363 674L318 709Z" fill="#c7147b" stroke="#c7147b"></path><path d="M135 400L113 479L183 424Z" fill="#061b36" stroke="#061b36"></path><path d="M411 197L346 153L316 210Z" fill="#a7217e" stroke="#a7217e"></path><path d="M316 210L198 198L188 329Z" fill="#c7147b" stroke="#c7147b"></path><path d="M413 120L346 153L411 197Z" fill="#672c76" stroke="#672c76"></path><path d="M346 153L261 170L316 210Z" fill="#a7217e" stroke="#a7217e"></path><path d="M113 479L116 519L194 460Z" fill="#492c6b" stroke="#492c6b"></path><path d="M363 674L419 680L417 586Z" fill="#001122" stroke="#001122"></path><path d="M261 170L198 198L316 210Z" fill="#c7147b" stroke="#c7147b"></path><path d="M619 250L516 184L494 218Z" fill="#492c6b" stroke="#492c6b"></path><path d="M494 218L516 184L443 210Z" fill="#c7147b" stroke="#c7147b"></path><path d="M74 596L164 628L188 571Z" fill="#2e285c" stroke="#2e285c"></path><path d="M188 571L215 675L260 552Z" fill="#87297d" stroke="#87297d"></path><path d="M113 479L86 508L116 519Z" fill="#672c76" stroke="#672c76"></path><path d="M116 519L74 596L188 571Z" fill="#17224a" stroke="#17224a"></path><path d="M0 436L86 508L113 479Z" fill="#492c6b" stroke="#492c6b"></path><path d="M50 364L113 479L135 400Z" fill="#061b36" stroke="#061b36"></path><path d="M50 364L135 400L156 332Z" fill="#87297d" stroke="#87297d"></path><path d="M318 709L363 674L303 585Z" fill="#ff0066" stroke="#ff0066"></path><path d="M363 674L355 711L419 680Z" fill="#87297d" stroke="#87297d"></path><path d="M516 184L413 120L443 210Z" fill="#87297d" stroke="#87297d"></path><path d="M346 153L261 124L261 170Z" fill="#c7147b" stroke="#c7147b"></path><path d="M215 675L318 709L303 585Z" fill="#2e285c" stroke="#2e285c"></path><path d="M639 278L619 250L550 381Z" fill="#a7217e" stroke="#a7217e"></path><path d="M639 278L550 381L588 382Z" fill="#061b36" stroke="#061b36"></path><path d="M164 628L215 675L188 571Z" fill="#a7217e" stroke="#a7217e"></path><path d="M137 124L139 214L198 198Z" fill="#492c6b" stroke="#492c6b"></path><path d="M198 198L139 214L188 329Z" fill="#492c6b" stroke="#492c6b"></path><path d="M589 698L594 616L502 621Z" fill="#672c76" stroke="#672c76"></path><path d="M502 621L594 616L485 563Z" fill="#17224a" stroke="#17224a"></path><path d="M517 704L502 621L419 680Z" fill="#ff0066" stroke="#ff0066"></path><path d="M675 410L588 428L675 431Z" fill="#87297d" stroke="#87297d"></path><path d="M675 410L639 278L588 382Z" fill="#672c76" stroke="#672c76"></path><path d="M315 87L261 124L346 153Z" fill="#672c76" stroke="#672c76"></path><path d="M261 170L261 124L198 198Z" fill="#87297d" stroke="#87297d"></path><path d="M675 431L588 428L608 485Z" fill="#e50173" stroke="#e50173"></path><path d="M675 523L675 431L608 485Z" fill="#a7217e" stroke="#a7217e"></path><path d="M503 81L409 105L413 120Z" fill="#061b36" stroke="#061b36"></path><path d="M413 120L409 105L346 153Z" fill="#061b36" stroke="#061b36"></path><path d="M503 81L413 120L516 184Z" fill="#672c76" stroke="#672c76"></path><path d="M63 127L107 237L139 214Z" fill="#672c76" stroke="#672c76"></path><path d="M139 214L107 237L156 332Z" fill="#a7217e" stroke="#a7217e"></path><path d="M107 237L74 286L156 332Z" fill="#a7217e" stroke="#a7217e"></path><path d="M405 836L443 724L355 711Z" fill="#c7147b" stroke="#c7147b"></path><path d="M355 711L443 724L419 680Z" fill="#001122" stroke="#001122"></path><path d="M74 286L50 364L156 332Z" fill="#492c6b" stroke="#492c6b"></path><path d="M443 724L517 704L419 680Z" fill="#672c76" stroke="#672c76"></path><path d="M675 152L602 187L619 250Z" fill="#87297d" stroke="#87297d"></path><path d="M619 250L602 187L516 184Z" fill="#061b36" stroke="#061b36"></path><path d="M594 616L675 523L608 485Z" fill="#ff0066" stroke="#ff0066"></path><path d="M409 105L315 87L346 153Z" fill="#492c6b" stroke="#492c6b"></path><path d="M675 410L675 266L639 278Z" fill="#001122" stroke="#001122"></path><path d="M639 278L675 262L619 250Z" fill="#001122" stroke="#001122"></path><path d="M86 508L74 596L116 519Z" fill="#c7147b" stroke="#c7147b"></path><path d="M164 628L140 678L215 675Z" fill="#ff0066" stroke="#ff0066"></path><path d="M0 503L74 596L86 508Z" fill="#17224a" stroke="#17224a"></path><path d="M675 266L675 262L639 278Z" fill="#ff0066" stroke="#ff0066"></path><path d="M517 704L589 698L502 621Z" fill="#061b36" stroke="#061b36"></path><path d="M594 616L675 614L675 523Z" fill="#492c6b" stroke="#492c6b"></path><path d="M443 724L523 723L517 704Z" fill="#2e285c" stroke="#2e285c"></path><path d="M74 596L140 678L164 628Z" fill="#ff0066" stroke="#ff0066"></path><path d="M215 675L271 777L318 709Z" fill="#e50173" stroke="#e50173"></path><path d="M602 187L503 81L516 184Z" fill="#061b36" stroke="#061b36"></path><path d="M409 105L349 0L315 87Z" fill="#e50173" stroke="#e50173"></path><path d="M632 62L503 81L602 187Z" fill="#87297d" stroke="#87297d"></path><path d="M523 723L589 698L517 704Z" fill="#ff0066" stroke="#ff0066"></path><path d="M0 368L0 436L50 364Z" fill="#e50173" stroke="#e50173"></path><path d="M50 364L0 436L113 479Z" fill="#e50173" stroke="#e50173"></path><path d="M675 685L675 614L594 616Z" fill="#672c76" stroke="#672c76"></path><path d="M0 277L50 364L74 286Z" fill="#e50173" stroke="#e50173"></path><path d="M0 277L0 368L50 364Z" fill="#001122" stroke="#001122"></path><path d="M261 124L137 124L198 198Z" fill="#c7147b" stroke="#c7147b"></path><path d="M0 257L0 277L74 286Z" fill="#672c76" stroke="#672c76"></path><path d="M187 64L137 124L261 124Z" fill="#e50173" stroke="#e50173"></path><path d="M197 753L271 777L215 675Z" fill="#c7147b" stroke="#c7147b"></path><path d="M318 709L289 792L355 711Z" fill="#ff0066" stroke="#ff0066"></path><path d="M443 724L536 785L523 723Z" fill="#492c6b" stroke="#492c6b"></path><path d="M0 436L0 503L86 508Z" fill="#c7147b" stroke="#c7147b"></path><path d="M140 678L197 753L215 675Z" fill="#ff0066" stroke="#ff0066"></path><path d="M140 772L197 753L140 678Z" fill="#672c76" stroke="#672c76"></path><path d="M52 668L140 678L74 596Z" fill="#17224a" stroke="#17224a"></path><path d="M520 0L468 43L503 81Z" fill="#17224a" stroke="#17224a"></path><path d="M503 81L468 43L409 105Z" fill="#87297d" stroke="#87297d"></path><path d="M240 36L187 64L261 124Z" fill="#ff0066" stroke="#ff0066"></path><path d="M248 795L289 792L271 777Z" fill="#ff0066" stroke="#ff0066"></path><path d="M271 777L289 792L318 709Z" fill="#17224a" stroke="#17224a"></path><path d="M0 257L74 286L107 237Z" fill="#e50173" stroke="#e50173"></path><path d="M536 785L621 711L589 698Z" fill="#c7147b" stroke="#c7147b"></path><path d="M589 698L621 711L594 616Z" fill="#001122" stroke="#001122"></path><path d="M536 785L589 698L523 723Z" fill="#2e285c" stroke="#2e285c"></path><path d="M240 36L261 124L315 87Z" fill="#c7147b" stroke="#c7147b"></path><path d="M0 168L0 257L107 237Z" fill="#061b36" stroke="#061b36"></path><path d="M63 127L139 214L137 124Z" fill="#e50173" stroke="#e50173"></path><path d="M332 0L240 36L315 87Z" fill="#ff0066" stroke="#ff0066"></path><path d="M197 753L248 795L271 777Z" fill="#c7147b" stroke="#c7147b"></path><path d="M0 619L52 668L74 596Z" fill="#a7217e" stroke="#a7217e"></path><path d="M197 753L173 862L248 795Z" fill="#001122" stroke="#001122"></path><path d="M675 262L675 152L619 250Z" fill="#e50173" stroke="#e50173"></path><path d="M405 836L355 711L289 792Z" fill="#2e285c" stroke="#2e285c"></path><path d="M405 836L536 785L443 724Z" fill="#2e285c" stroke="#2e285c"></path><path d="M675 723L675 685L621 711Z" fill="#87297d" stroke="#87297d"></path><path d="M621 711L675 685L594 616Z" fill="#a7217e" stroke="#a7217e"></path><path d="M414 0L349 0L409 105Z" fill="#061b36" stroke="#061b36"></path><path d="M349 0L332 0L315 87Z" fill="#ff0066" stroke="#ff0066"></path><path d="M520 0L414 0L468 43Z" fill="#2e285c" stroke="#2e285c"></path><path d="M468 43L414 0L409 105Z" fill="#2e285c" stroke="#2e285c"></path><path d="M48 112L137 124L132 0Z" fill="#87297d" stroke="#87297d"></path><path d="M48 112L63 127L137 124Z" fill="#e50173" stroke="#e50173"></path><path d="M0 503L0 619L74 596Z" fill="#061b36" stroke="#061b36"></path><path d="M66 744L140 678L52 668Z" fill="#672c76" stroke="#672c76"></path><path d="M66 744L140 772L140 678Z" fill="#a7217e" stroke="#a7217e"></path><path d="M422 862L405 836L339 900Z" fill="#a7217e" stroke="#a7217e"></path><path d="M405 836L289 792L339 900Z" fill="#2e285c" stroke="#2e285c"></path><path d="M332 0L240 0L240 36Z" fill="#a7217e" stroke="#a7217e"></path><path d="M240 36L240 0L187 64Z" fill="#87297d" stroke="#87297d"></path><path d="M675 825L675 723L621 711Z" fill="#2e285c" stroke="#2e285c"></path><path d="M132 0L137 124L187 64Z" fill="#001122" stroke="#001122"></path><path d="M63 127L0 168L107 237Z" fill="#2e285c" stroke="#2e285c"></path><path d="M48 112L0 168L63 127Z" fill="#e50173" stroke="#e50173"></path><path d="M675 152L632 62L602 187Z" fill="#c7147b" stroke="#c7147b"></path><path d="M591 0L520 0L503 81Z" fill="#061b36" stroke="#061b36"></path><path d="M0 685L66 744L52 668Z" fill="#a7217e" stroke="#a7217e"></path><path d="M405 836L422 862L536 785Z" fill="#ff0066" stroke="#ff0066"></path><path d="M536 785L591 825L621 711Z" fill="#492c6b" stroke="#492c6b"></path><path d="M339 900L289 792L336 900Z" fill="#e50173" stroke="#e50173"></path><path d="M0 619L0 685L52 668Z" fill="#17224a" stroke="#17224a"></path><path d="M0 827L110 791L66 744Z" fill="#17224a" stroke="#17224a"></path><path d="M66 744L110 791L140 772Z" fill="#001122" stroke="#001122"></path><path d="M140 772L173 862L197 753Z" fill="#001122" stroke="#001122"></path><path d="M675 152L675 65L632 62Z" fill="#061b36" stroke="#061b36"></path><path d="M632 62L591 0L503 81Z" fill="#492c6b" stroke="#492c6b"></path><path d="M487 900L591 825L536 785Z" fill="#c7147b" stroke="#c7147b"></path><path d="M675 0L591 0L632 62Z" fill="#672c76" stroke="#672c76"></path><path d="M240 0L132 0L187 64Z" fill="#c7147b" stroke="#c7147b"></path><path d="M48 112L0 77L0 168Z" fill="#061b36" stroke="#061b36"></path><path d="M336 900L289 792L226 900Z" fill="#492c6b" stroke="#492c6b"></path><path d="M422 862L487 900L536 785Z" fill="#c7147b" stroke="#c7147b"></path><path d="M226 900L289 792L248 795Z" fill="#a7217e" stroke="#a7217e"></path><path d="M110 791L173 862L140 772Z" fill="#672c76" stroke="#672c76"></path><path d="M123 900L173 862L110 791Z" fill="#a7217e" stroke="#a7217e"></path><path d="M339 900L468 900L422 862Z" fill="#e50173" stroke="#e50173"></path><path d="M48 0L0 77L48 112Z" fill="#17224a" stroke="#17224a"></path><path d="M468 900L487 900L422 862Z" fill="#2e285c" stroke="#2e285c"></path><path d="M0 685L0 762L66 744Z" fill="#001122" stroke="#001122"></path><path d="M123 900L226 900L173 862Z" fill="#672c76" stroke="#672c76"></path><path d="M173 862L226 900L248 795Z" fill="#87297d" stroke="#87297d"></path><path d="M609 900L675 825L591 825Z" fill="#001122" stroke="#001122"></path><path d="M591 825L675 825L621 711Z" fill="#ff0066" stroke="#ff0066"></path><path d="M675 65L675 0L632 62Z" fill="#e50173" stroke="#e50173"></path><path d="M132 0L48 0L48 112Z" fill="#061b36" stroke="#061b36"></path><path d="M97 900L123 900L110 791Z" fill="#2e285c" stroke="#2e285c"></path><path d="M487 900L609 900L591 825Z" fill="#2e285c" stroke="#2e285c"></path><path d="M0 762L0 827L66 744Z" fill="#672c76" stroke="#672c76"></path><path d="M48 0L0 0L0 77Z" fill="#87297d" stroke="#87297d"></path><path d="M0 827L97 900L110 791Z" fill="#672c76" stroke="#672c76"></path><path d="M609 900L675 900L675 825Z" fill="#2e285c" stroke="#2e285c"></path><path d="M0 827L0 900L97 900Z" fill="#e50173" stroke="#e50173"></path></g></svg>